<?xml version="1.0" encoding="UTF-8"?>
<svg xmlns="http://www.w3.org/2000/svg" xmlns:xlink="http://www.w3.org/1999/xlink" width="12pt" height="12pt" viewBox="0 0 12 12" version="1.1">
<g id="surface9792096">
<path style=" stroke:none;fill-rule:nonzero;fill:rgb(40%,40%,40%);fill-opacity:1;" d="M 4.5 1 C 2.574219 1 1 2.574219 1 4.5 C 1 6.425781 2.574219 8 4.5 8 C 5.375 8 6.171875 7.675781 6.785156 7.140625 L 7 7.351562 L 7 8 L 10 11 L 11 10 L 8 7 L 7.351562 7 L 7.140625 6.789062 C 7.675781 6.171875 8 5.375 8 4.5 C 8 2.574219 6.425781 1 4.5 1 Z M 4.5 2 C 5.886719 2 7 3.113281 7 4.5 C 7 5.886719 5.886719 7 4.5 7 C 3.113281 7 2 5.886719 2 4.5 C 2 3.113281 3.113281 2 4.5 2 Z M 4.5 2 "/>
</g>
</svg>
